<?xml version="1.0"?>
<svg xmlns="http://www.w3.org/2000/svg" xmlns:xlink="http://www.w3.org/1999/xlink" xmlns:svgjs="http://svgjs.com/svgjs" version="1.1" width="512" height="512" x="0" y="0" viewBox="0 0 512 512" style="enable-background:new 0 0 512 512" xml:space="preserve" class=""><g><g xmlns="http://www.w3.org/2000/svg"><path d="m189.778 322.222-10.605-10.606-43.784 43.784 10.605 10.606 10.606 10.605 43.784-43.784z" fill="#c7cfe1" data-original="#dfe7f4" style="" class=""/><path d="m142.229 341.917h61.92v14.998h-61.92z" fill="#c7cfe1" transform="matrix(.707 -.707 .707 .707 -196.349 224.805)" data-original="#c7cfe1" style="" class=""/><path d="m454.82 57.18c-35.31-35.31-84.06-57.18-137.82-57.18-107.52 0-195 87.48-195 195 0 53.76 21.87 102.51 57.18 137.82s84.06 57.18 137.82 57.18c107.52 0 195-87.48 195-195 0-53.76-21.87-102.51-57.18-137.82z" fill="#29376d" data-original="#47568c" style="" class=""/><path d="m512 195c0-53.76-21.87-102.51-57.18-137.82l-275.64 275.64c35.31 35.31 84.06 57.18 137.82 57.18 107.52 0 195-87.48 195-195z" fill="#29376d" data-original="#29376d" style="" class=""/><path d="m433.618 78.382c-29.877-29.877-71.127-48.382-116.618-48.382-90.981 0-165 74.019-165 165 0 45.491 18.505 86.741 48.382 116.618s71.127 48.382 116.618 48.382c90.981 0 165-74.019 165-165 0-45.491-18.505-86.741-48.382-116.618z" fill="#c7cfe1" data-original="#f0f7ff" style="" class=""/><path d="m482 195c0-45.491-18.505-86.741-48.382-116.618l-233.236 233.236c29.877 29.877 71.127 48.382 116.618 48.382 90.981 0 165-74.019 165-165z" fill="#c7cfe1" data-original="#dfe7f4" style="" class=""/><path d="m412.416 99.584c-24.444-24.445-58.194-39.584-95.416-39.584-74.443 0-135 60.557-135 135 0 37.222 15.139 70.972 39.584 95.416s58.194 39.584 95.416 39.584c74.443 0 135-60.557 135-135 0-37.222-15.139-70.972-39.584-95.416z" fill="#ff3377" data-original="#ff80aa" style="" class=""/><path d="m452 195c0-37.222-15.139-70.972-39.584-95.416l-190.832 190.832c24.444 24.445 58.194 39.584 95.416 39.584 74.443 0 135-60.557 135-135z" fill="#ff3377" data-original="#ff3377" style="" class=""/><path d="m156.6 355.4-31.816-31.816-111.632 111.629c-17.534 17.534-17.534 46.069-.015 63.633l.007.007.007.007c17.549 17.52 46.124 17.523 63.633-.015l111.631-111.629z" fill="#ff9100" data-original="#fabe2c" style="" class=""/><path d="m76.785 498.846 111.631-111.629-31.816-31.817-143.455 143.453.007.007c17.549 17.52 46.125 17.524 63.633-.014z" fill="#ff9100" data-original="#ff9100" style="" class=""/><path d="m368.211 165-10.606-10.605-10.605-10.606-30 30-30-30-21.211 21.211 30 30-30 30 10.606 10.605 10.605 10.606 30-30 30 30 21.211-21.211-30-30z" fill="#c7cfe1" data-original="#f0f7ff" style="" class=""/><path d="m317 216.211 30 30 21.211-21.211-30-30 30-30-10.606-10.605-81.21 81.21 10.605 10.606z" fill="#c7cfe1" data-original="#dfe7f4" style="" class=""/></g></g></svg>
